<svg width="24" height="24" viewBox="0 0 24 24" fill="none" xmlns="http://www.w3.org/2000/svg">
<path d="M8.4 12C8.4 12.6628 7.86274 13.2001 7.2 13.2001C6.53726 13.2001 6 12.6628 6 12C6 11.3373 6.53726 10.8 7.2 10.8C7.86274 10.8 8.4 11.3373 8.4 12Z" fill="#3B5A9D"/>
<path d="M13.2 12C13.2 12.6628 12.6627 13.2001 12 13.2001C11.3373 13.2001 10.8 12.6628 10.8 12C10.8 11.3373 11.3373 10.8 12 10.8C12.6627 10.8 13.2 11.3373 13.2 12Z" fill="#3B5A9D"/>
<path d="M18 12C18 12.6628 17.4628 13.2001 16.8 13.2001C16.1372 13.2001 15.6 12.6628 15.6 12C15.6 11.3373 16.1372 10.8 16.8 10.8C17.4628 10.8 18 11.3373 18 12Z" fill="#3B5A9D"/>
<path d="M12 2.3999C6.69806 2.3999 2.39999 6.69797 2.39999 11.9999C2.39999 17.3019 6.69806 21.5999 12 21.5999C17.302 21.5999 21.6 17.3019 21.6 11.9999C21.6 6.69797 17.302 2.3999 12 2.3999ZM3.59999 11.9999C3.59999 7.36071 7.36081 3.5999 12 3.5999C16.6392 3.5999 20.4 7.36071 20.4 11.9999C20.4 16.6391 16.6392 20.3999 12 20.3999C7.36081 20.3999 3.59999 16.6391 3.59999 11.9999Z" fill="#3B5A9D"/>
</svg>
