<svg width="24" height="24" viewBox="0 0 24 24" fill="none" xmlns="http://www.w3.org/2000/svg">
<path d="M12.9853 12.6H17.4C17.7313 12.6 18 12.3314 18 12C18 11.6687 17.7313 11.4 17.4 11.4H12.9853L14.1835 10.3516C14.4329 10.1334 14.4582 9.75433 14.2399 9.50495C14.0218 9.25557 13.6427 9.2303 13.3933 9.44851L10.9933 11.5485C10.8631 11.6624 10.7884 11.827 10.7884 12C10.7884 12.1731 10.8631 12.3377 10.9933 12.4516L13.3933 14.5516C13.6427 14.7698 14.0218 14.7446 14.2399 14.4952C14.4582 14.2457 14.4329 13.8668 14.1835 13.6485L12.9853 12.6Z" fill="#FFFEFE"/>
<path d="M4.8 4.80005C3.47452 4.80005 2.4 5.87456 2.4 7.20005V16.8C2.4 18.1256 3.47452 19.2 4.8 19.2H19.2C20.5255 19.2 21.6 18.1256 21.6 16.8V7.20005C21.6 5.87456 20.5255 4.80005 19.2 4.80005H4.8ZM3.6 7.20005C3.6 6.53731 4.13727 6.00005 4.8 6.00005H8.4V18H4.8C4.13727 18 3.6 17.4628 3.6 16.8V7.20005ZM9.6 18V6.00005H19.2C19.8628 6.00005 20.4 6.53731 20.4 7.20005V16.8C20.4 17.4628 19.8628 18 19.2 18H9.6Z" fill="#FFFEFE"/>
</svg>
