<svg width="24" height="24" viewBox="0 0 24 24" fill="none" xmlns="http://www.w3.org/2000/svg">
<g opacity="0.5">
<path d="M5.93127 3.60016C6.18212 3.60367 6.4043 3.76304 6.4882 3.99947L8.61724 9.99947C8.72806 10.3118 8.56473 10.6548 8.25243 10.7656C7.94012 10.8763 7.59712 10.7131 7.48631 10.4008L7.20217 9.60016H4.4758L4.15972 10.4167C4.04008 10.7257 3.69259 10.8793 3.38357 10.7597C3.07453 10.6402 2.92101 10.2924 3.04061 9.98365L5.3632 3.98365C5.45377 3.74957 5.68037 3.59664 5.93127 3.60016ZM4.94033 8.40016H6.77641L5.89827 5.92544L4.94033 8.40016Z" fill="#59597C"/>
<path d="M10.2003 3.6001H12.0037C12.1985 3.6001 12.7266 3.6001 13.2133 3.87373C13.4704 4.01845 13.7143 4.2376 13.8896 4.55811C14.0634 4.87539 14.1523 5.25947 14.1523 5.71065C14.1523 6.25733 14.0034 6.68331 13.7678 7.00323C13.9463 7.13037 14.1127 7.29795 14.2459 7.5168C14.4413 7.8376 14.5416 8.22959 14.5416 8.69014C14.5416 9.59189 14.1187 10.1635 13.5835 10.4746C13.0949 10.7585 12.5617 10.8004 12.3 10.8004L10.2 10.8001C9.86863 10.8001 9.60001 10.5314 9.60001 10.2001V4.2001C9.60001 3.86875 9.86891 3.6001 10.2003 3.6001ZM12.0002 4.8001H10.8V6.6001H12.0283C12.173 6.6001 12.4253 6.57256 12.6221 6.45303C12.7718 6.36221 12.9523 6.18701 12.9523 5.71065C12.9523 5.4168 12.895 5.23984 12.8371 5.13437C12.781 5.03183 12.7084 4.9665 12.6251 4.91963C12.4339 4.81211 12.1894 4.8001 12.0002 4.8001ZM10.8 7.8001V9.60039H12.3C12.468 9.60039 12.7555 9.56787 12.9804 9.43721C13.1586 9.33349 13.3416 9.1501 13.3416 8.69014C13.3416 8.52636 13.3216 8.40156 13.293 8.30664C13.2803 8.26386 13.2658 8.22725 13.2508 8.19561C13.241 8.17539 13.231 8.15723 13.221 8.14081C13.162 8.04384 13.081 7.97587 12.977 7.92431C12.7426 7.80831 12.4475 7.80039 12.2228 7.80039H11.2458L11.23 7.8001H10.8Z" fill="#59597C"/>
<path d="M20.8897 5.43498C20.5944 4.61174 20.1651 4.10754 19.6254 3.84152C19.1339 3.59953 18.6258 3.59983 18.2957 3.60012H18.2626C17.5985 3.60012 17.0698 3.82776 16.6704 4.18459C16.2837 4.5303 16.0452 4.9718 15.8957 5.37229C15.7453 5.77571 15.6726 6.17034 15.6369 6.45832C15.6187 6.60363 15.6096 6.72609 15.6049 6.81339C15.6025 6.85734 15.6013 6.8928 15.6007 6.91829L15.6001 6.94904L15.6 6.95871V6.96193V6.99006C15.5999 7.45002 15.5997 8.2926 15.8989 9.059C16.0555 9.46036 16.3013 9.86174 16.6876 10.1817C17.0773 10.5042 17.5773 10.716 18.1959 10.7852C18.6958 10.8408 20.1915 10.8013 20.872 9.29074C21.0082 8.98869 20.8737 8.63332 20.5715 8.49738C20.2693 8.36115 19.9141 8.49563 19.7779 8.79797C19.4273 9.57638 18.6619 9.62971 18.3291 9.5925C17.9165 9.5465 17.643 9.41467 17.4527 9.25705C17.2589 9.0968 17.1179 8.88176 17.0167 8.62278C16.806 8.08284 16.8 7.44504 16.8 6.96339L16.8004 6.94817C16.8007 6.93323 16.8016 6.9092 16.8033 6.87727C16.8066 6.81369 16.8136 6.71994 16.8276 6.60627C16.8563 6.37599 16.9126 6.07981 17.02 5.79182C17.1283 5.50148 17.2767 5.25217 17.47 5.07961C17.6507 4.91789 17.8954 4.80012 18.2626 4.80012C18.6267 4.80012 18.8741 4.8092 19.095 4.91789C19.2845 5.01134 19.5399 5.2258 19.7602 5.84016C19.8721 6.15187 20.2156 6.31418 20.5276 6.20227C20.8395 6.09035 21.0016 5.7467 20.8897 5.43498Z" fill="#59597C"/>
<path d="M17.036 14.6455C16.8884 14.7756 16.8101 14.9394 16.7768 15.0556C16.6858 15.3745 16.3537 15.5587 16.0351 15.4678C15.7165 15.3768 15.532 15.0448 15.6229 14.7261C15.7039 14.4424 15.885 14.0607 16.2422 13.7455C16.611 13.4203 17.1298 13.2 17.8152 13.2C19.2166 13.2 20.0306 14.2254 20.0306 15.1638C20.0306 15.5276 19.9606 16.0948 19.5748 16.5802C19.5235 16.6448 19.4681 16.706 19.4084 16.764C19.4518 16.8006 19.494 16.8396 19.5348 16.8812C19.5952 16.943 19.6524 17.0107 19.7052 17.0848C19.9158 17.3804 20.0306 17.743 20.0306 18.1638C20.0306 18.9188 19.7755 19.51 19.3129 19.9005C18.8683 20.2758 18.31 20.4 17.8152 20.4C17.351 20.4 16.8868 20.3229 16.4846 20.0684C16.0711 19.8064 15.7969 19.4042 15.6299 18.8968C15.5263 18.5818 15.6976 18.2428 16.0123 18.1392C16.3271 18.0355 16.6662 18.2068 16.7699 18.5215C16.8218 18.6794 16.8809 18.7942 16.9428 18.8792L16.9607 18.903C16.9735 18.919 16.9865 18.934 16.9994 18.9481L17.0176 18.9668L17.0375 18.9861C17.0672 19.0134 17.097 19.0357 17.1266 19.0544C17.1722 19.0834 17.2259 19.1092 17.2901 19.1308C17.4176 19.1739 17.5866 19.2 17.8152 19.2C18.1283 19.2 18.3775 19.1198 18.5388 18.9835C18.682 18.8628 18.8306 18.6357 18.8306 18.1638C18.8306 17.9704 18.7813 17.8562 18.7278 17.7808C18.6702 17.7 18.5798 17.6268 18.4477 17.565C18.168 17.4337 17.803 17.4 17.546 17.4C17.2147 17.4 16.946 17.1314 16.946 16.8C16.946 16.4686 17.2147 16.2 17.546 16.2C18.2342 16.2 18.511 15.99 18.6354 15.8335C18.7808 15.6507 18.8306 15.3997 18.8306 15.1638C18.8306 14.9022 18.5678 14.4 17.8152 14.4C17.4042 14.4 17.1725 14.5251 17.036 14.6455Z" fill="#59597C"/>
<path d="M10.8 15.4363C10.8 14.905 11.2441 14.4 11.8023 14.4C12.2057 14.4 12.5392 14.589 12.7043 14.843C12.8514 15.0692 12.9223 15.4363 12.6202 15.9507C12.4738 16.1997 12.2551 16.4182 11.9686 16.6444C11.8258 16.7572 11.6735 16.8666 11.5096 16.9822L11.4413 17.0306C11.3007 17.1296 11.1516 17.2348 11.0075 17.3432C10.3281 17.8548 9.60001 18.5558 9.60001 19.8C9.60001 20.1314 9.86863 20.4 10.2 20.4L10.2308 20.3991L10.2615 20.4H13.4316C13.7629 20.4 14.0316 20.1314 14.0316 19.8C14.0316 19.4686 13.7629 19.2 13.4316 19.2H10.9162C11.0625 18.8617 11.342 18.5936 11.7291 18.3021C11.8518 18.2098 11.9783 18.1201 12.113 18.0249L12.1309 18.0126L12.2023 17.9623C12.3671 17.8456 12.5423 17.7205 12.7124 17.5863C13.0517 17.3182 13.4005 16.9914 13.6548 16.5586C14.1538 15.7093 14.1396 14.8489 13.7102 14.1888C13.2989 13.5562 12.5641 13.2 11.8023 13.2C10.4959 13.2 9.60001 14.3312 9.60001 15.4363C9.60001 15.7678 9.86863 16.0363 10.2 16.0363C10.5314 16.0363 10.8 15.7678 10.8 15.4363Z" fill="#59597C"/>
<path d="M5.30105 16.4813C5.5492 16.3159 5.78661 16.1213 6.00498 15.9065V19.8001C6.00498 20.1317 6.2736 20.4001 6.60498 20.4001C6.93636 20.4001 7.20498 20.1317 7.20498 19.8001V13.8001C7.20498 13.4881 6.96672 13.2317 6.66219 13.2031C6.3638 13.1738 6.08412 13.3718 6.01846 13.6721C5.89538 14.2346 5.35599 15.0025 4.63542 15.4829C4.35971 15.6667 4.28518 16.0393 4.46898 16.315C4.65282 16.5907 5.02534 16.6651 5.30105 16.4813Z" fill="#59597C"/>
</g>
</svg>
