<svg width="24" height="24" viewBox="0 0 24 24" fill="none" xmlns="http://www.w3.org/2000/svg">
<path opacity="0.4" d="M16.8906 0H20.9538C22.6365 0 24 1.37502 24 3.07196V7.16943C24 8.86636 22.6365 10.2414 20.9538 10.2414H16.8906C15.2079 10.2414 13.8444 8.86636 13.8444 7.16943V3.07196C13.8444 1.37502 15.2079 0 16.8906 0Z" fill="white"/>
<path fill-rule="evenodd" clip-rule="evenodd" d="M3.04623 0H7.10939C8.79211 0 10.1556 1.37502 10.1556 3.07196V7.16943C10.1556 8.86636 8.79211 10.2414 7.10939 10.2414H3.04623C1.36351 10.2414 0 8.86636 0 7.16943V3.07196C0 1.37502 1.36351 0 3.04623 0ZM3.04623 13.7587H7.10939C8.79211 13.7587 10.1556 15.1337 10.1556 16.8307V20.9281C10.1556 22.6239 8.79211 24.0001 7.10939 24.0001H3.04623C1.36351 24.0001 0 22.6239 0 20.9281V16.8307C0 15.1337 1.36351 13.7587 3.04623 13.7587ZM20.9538 13.7587H16.8906C15.2079 13.7587 13.8444 15.1337 13.8444 16.8307V20.9281C13.8444 22.6239 15.2079 24.0001 16.8906 24.0001H20.9538C22.6365 24.0001 24 22.6239 24 20.9281V16.8307C24 15.1337 22.6365 13.7587 20.9538 13.7587Z" fill="white"/>
</svg>
